<svg xmlns="http://www.w3.org/2000/svg" xmlns:v="https://svgstorm.com"
viewBox = "0 0 1600 1600"
width="1600"
height="1600">
<g fill="None" fill-opacity="0.0" stroke="#FEFEFE" stroke-opacity="1.00" stroke-width="0.3"><path d="
M 0.00 1600.00 
L 1600.00 1600.00
L 1600.00 0.00
L 0.00 0.00
L 0.00 1600.00
M 1191.00 300.00 
C 1216.12 302.43 1241.46 311.92 1260.70 330.30 C 1279.93 348.69 1291.78 366.29 1297.00 394.00 C 1302.22 421.71 1299.58 459.83 1300.00 491.00 C 1300.42 522.17 1299.82 558.67 1300.00 591.00 C 1300.18 623.33 1299.94 658.18 1300.00 691.00 C 1300.06 723.83 1300.03 758.02 1300.00 791.00 C 1299.97 823.98 1300.13 858.11 1300.00 891.00 C 1299.87 923.89 1300.33 958.50 1300.00 991.00 C 1299.67 1023.50 1300.74 1059.43 1300.00 1091.00 C 1299.26 1122.57 1301.80 1161.30 1299.67 1190.67 C 1297.54 1220.04 1288.17 1239.77 1269.70 1260.70 C 1251.22 1281.62 1233.75 1291.00 1206.00 1297.00 C 1178.25 1303.00 1140.19 1299.23 1109.00 1300.00 C 1077.81 1300.77 1041.34 1299.66 1009.00 1300.00 C 976.66 1300.34 941.83 1299.87 909.00 1300.00 C 876.17 1300.13 841.98 1300.00 809.00 1300.00 C 776.02 1300.00 741.89 1300.12 709.00 1300.00 C 676.11 1299.88 641.50 1300.32 609.00 1300.00 C 576.50 1299.68 540.57 1300.74 509.00 1300.00 C 477.43 1299.26 438.69 1301.80 409.33 1299.67 C 379.97 1297.54 360.23 1288.17 339.30 1269.70 C 318.38 1251.23 309.00 1233.75 303.00 1206.00 C 297.00 1178.25 300.76 1140.19 300.00 1109.00 C 299.24 1077.81 300.33 1041.34 300.00 1009.00 C 299.67 976.66 300.13 941.83 300.00 909.00 C 299.87 876.17 300.00 841.98 300.00 809.00 C 300.00 776.02 299.88 741.89 300.00 709.00 C 300.12 676.11 299.68 641.50 300.00 609.00 C 300.32 576.50 299.26 540.57 300.00 509.00 C 300.74 477.43 298.20 438.69 300.33 409.33 C 302.46 379.97 311.83 360.23 330.30 339.30 C 348.78 318.38 366.25 309.00 394.00 303.00 C 421.76 297.01 459.79 300.76 491.00 300.00 C 522.21 299.24 558.63 300.32 591.00 300.00 C 623.37 299.68 658.10 300.10 691.00 300.00 C 723.90 299.90 757.87 299.94 791.00 300.00 C 824.13 300.06 857.78 299.74 891.00 300.00 C 924.22 300.26 957.77 299.36 991.00 300.00 C 1024.23 300.64 1057.83 298.56 1091.00 300.00 C 1124.17 301.44 1157.99 296.80 1191.00 300.00 Z"/>
</g>
<g fill="None" fill-opacity="0.0" stroke="#000000" stroke-opacity="1.00" stroke-width="0.3"><path d="
M 1191.00 300.00 
C 1157.99 296.80 1124.17 301.44 1091.00 300.00 C 1057.83 298.56 1024.23 300.64 991.00 300.00 C 957.77 299.36 924.22 300.26 891.00 300.00 C 857.78 299.74 824.13 300.06 791.00 300.00 C 757.87 299.94 723.90 299.90 691.00 300.00 C 658.10 300.10 623.37 299.68 591.00 300.00 C 558.63 300.32 522.21 299.24 491.00 300.00 C 459.79 300.76 421.76 297.01 394.00 303.00 C 366.25 309.00 348.78 318.38 330.30 339.30 C 311.83 360.23 302.46 379.97 300.33 409.33 C 298.20 438.69 300.74 477.43 300.00 509.00 C 299.26 540.57 300.32 576.50 300.00 609.00 C 299.68 641.50 300.12 676.11 300.00 709.00 C 299.88 741.89 300.00 776.02 300.00 809.00 C 300.00 841.98 299.87 876.17 300.00 909.00 C 300.13 941.83 299.67 976.66 300.00 1009.00 C 300.33 1041.34 299.24 1077.81 300.00 1109.00 C 300.76 1140.19 297.00 1178.25 303.00 1206.00 C 309.00 1233.75 318.38 1251.23 339.30 1269.70 C 360.23 1288.17 379.97 1297.54 409.33 1299.67 C 438.69 1301.80 477.43 1299.26 509.00 1300.00 C 540.57 1300.74 576.50 1299.68 609.00 1300.00 C 641.50 1300.32 676.11 1299.88 709.00 1300.00 C 741.89 1300.12 776.02 1300.00 809.00 1300.00 C 841.98 1300.00 876.17 1300.13 909.00 1300.00 C 941.83 1299.87 976.66 1300.34 1009.00 1300.00 C 1041.34 1299.66 1077.81 1300.77 1109.00 1300.00 C 1140.19 1299.23 1178.25 1303.00 1206.00 1297.00 C 1233.75 1291.00 1251.22 1281.62 1269.70 1260.70 C 1288.17 1239.77 1297.54 1220.04 1299.67 1190.67 C 1301.80 1161.30 1299.26 1122.57 1300.00 1091.00 C 1300.74 1059.43 1299.67 1023.50 1300.00 991.00 C 1300.33 958.50 1299.87 923.89 1300.00 891.00 C 1300.13 858.11 1299.97 823.98 1300.00 791.00 C 1300.03 758.02 1300.06 723.83 1300.00 691.00 C 1299.94 658.18 1300.18 623.33 1300.00 591.00 C 1299.82 558.67 1300.42 522.17 1300.00 491.00 C 1299.58 459.83 1302.22 421.71 1297.00 394.00 C 1291.78 366.29 1279.93 348.69 1260.70 330.30 C 1241.46 311.92 1216.12 302.43 1191.00 300.00
M 855.00 745.00 
C 883.26 744.55 915.10 745.60 943.00 745.00 C 970.90 744.40 1004.41 746.14 1031.00 745.00 C 1057.59 743.86 1082.04 745.50 1097.25 766.75 C 1112.46 788.00 1112.41 811.96 1097.23 833.23 C 1082.05 854.50 1057.61 856.14 1031.00 855.00 C 1004.39 853.86 970.92 855.60 943.00 855.00 C 915.08 854.40 883.27 855.45 855.00 855.00
C 855.44 883.26 854.41 915.10 855.00 943.00 C 855.59 970.90 853.87 1004.41 855.00 1031.00 C 856.13 1057.59 854.52 1082.03 833.25 1097.25 C 811.98 1112.47 788.09 1112.39 766.77 1097.23 C 745.45 1082.07 743.82 1057.66 745.00 1031.00 C 746.18 1004.34 744.38 970.94 745.00 943.00 C 745.62 915.06 744.54 883.29 745.00 855.00
C 716.74 855.46 684.91 854.39 657.00 855.00 C 629.09 855.61 595.60 853.83 569.00 855.00 C 542.40 856.17 517.97 854.53 502.75 833.25 C 487.53 811.97 487.61 788.09 502.77 766.77 C 517.93 745.45 542.34 743.82 569.00 745.00 C 595.66 746.18 629.06 744.38 657.00 745.00 C 684.94 745.62 716.71 744.54 745.00 745.00
C 744.54 716.72 745.62 684.93 745.00 657.00 C 744.38 629.07 746.18 595.63 745.00 569.00 C 743.82 542.37 745.45 517.95 766.75 502.75 C 788.05 487.55 811.93 487.59 833.23 502.77 C 854.53 517.95 856.17 542.38 855.00 569.00 C 853.83 595.62 855.61 629.08 855.00 657.00 C 854.39 684.92 855.46 716.73 855.00 745.00 Z"/>
</g>
<g fill="None" fill-opacity="0.0" stroke="#FEFEFE" stroke-opacity="1.00" stroke-width="0.3"><path d="
M 855.00 745.00 
C 855.46 716.73 854.39 684.92 855.00 657.00 C 855.61 629.08 853.83 595.62 855.00 569.00 C 856.17 542.38 854.53 517.95 833.23 502.77 C 811.93 487.59 788.05 487.55 766.75 502.75 C 745.45 517.95 743.82 542.37 745.00 569.00 C 746.18 595.63 744.38 629.07 745.00 657.00 C 745.62 684.93 744.54 716.72 745.00 745.00
C 716.71 744.54 684.94 745.62 657.00 745.00 C 629.06 744.38 595.66 746.18 569.00 745.00 C 542.34 743.82 517.93 745.45 502.77 766.77 C 487.61 788.09 487.53 811.97 502.75 833.25 C 517.97 854.53 542.40 856.17 569.00 855.00 C 595.60 853.83 629.09 855.61 657.00 855.00 C 684.91 854.39 716.74 855.46 745.00 855.00
C 744.54 883.29 745.62 915.06 745.00 943.00 C 744.38 970.94 746.18 1004.34 745.00 1031.00 C 743.82 1057.66 745.45 1082.07 766.77 1097.23 C 788.09 1112.39 811.98 1112.47 833.25 1097.25 C 854.52 1082.03 856.13 1057.59 855.00 1031.00 C 853.87 1004.41 855.59 970.90 855.00 943.00 C 854.41 915.10 855.44 883.26 855.00 855.00
C 883.27 855.45 915.08 854.40 943.00 855.00 C 970.92 855.60 1004.39 853.86 1031.00 855.00 C 1057.61 856.14 1082.05 854.50 1097.23 833.23 C 1112.41 811.96 1112.46 788.00 1097.25 766.75 C 1082.04 745.50 1057.59 743.86 1031.00 745.00 C 1004.41 746.14 970.90 744.40 943.00 745.00 C 915.10 745.60 883.26 744.55 855.00 745.00 Z"/>
</g>
<g fill="#FEFEFE" fill-opacity="1.00" stroke="None">
<path d="
M 0.00 1600.00 
L 1600.00 1600.00
L 1600.00 0.00
L 0.00 0.00
L 0.00 1600.00
M 1191.00 300.00 
C 1216.12 302.43 1241.46 311.92 1260.70 330.30 C 1279.93 348.69 1291.78 366.29 1297.00 394.00 C 1302.22 421.71 1299.58 459.83 1300.00 491.00 C 1300.42 522.17 1299.82 558.67 1300.00 591.00 C 1300.18 623.33 1299.94 658.18 1300.00 691.00 C 1300.06 723.83 1300.03 758.02 1300.00 791.00 C 1299.97 823.98 1300.13 858.11 1300.00 891.00 C 1299.87 923.89 1300.33 958.50 1300.00 991.00 C 1299.67 1023.50 1300.74 1059.43 1300.00 1091.00 C 1299.26 1122.57 1301.80 1161.30 1299.67 1190.67 C 1297.54 1220.04 1288.17 1239.77 1269.70 1260.70 C 1251.22 1281.62 1233.75 1291.00 1206.00 1297.00 C 1178.25 1303.00 1140.19 1299.23 1109.00 1300.00 C 1077.81 1300.77 1041.34 1299.66 1009.00 1300.00 C 976.66 1300.34 941.83 1299.87 909.00 1300.00 C 876.17 1300.13 841.98 1300.00 809.00 1300.00 C 776.02 1300.00 741.89 1300.12 709.00 1300.00 C 676.11 1299.88 641.50 1300.32 609.00 1300.00 C 576.50 1299.68 540.57 1300.74 509.00 1300.00 C 477.43 1299.26 438.69 1301.80 409.33 1299.67 C 379.97 1297.54 360.23 1288.17 339.30 1269.70 C 318.38 1251.23 309.00 1233.75 303.00 1206.00 C 297.00 1178.25 300.76 1140.19 300.00 1109.00 C 299.24 1077.81 300.33 1041.34 300.00 1009.00 C 299.67 976.66 300.13 941.83 300.00 909.00 C 299.87 876.17 300.00 841.98 300.00 809.00 C 300.00 776.02 299.88 741.89 300.00 709.00 C 300.12 676.11 299.68 641.50 300.00 609.00 C 300.32 576.50 299.26 540.57 300.00 509.00 C 300.74 477.43 298.20 438.69 300.33 409.33 C 302.46 379.97 311.83 360.23 330.30 339.30 C 348.78 318.38 366.25 309.00 394.00 303.00 C 421.76 297.01 459.79 300.76 491.00 300.00 C 522.21 299.24 558.63 300.32 591.00 300.00 C 623.37 299.68 658.10 300.10 691.00 300.00 C 723.90 299.90 757.87 299.94 791.00 300.00 C 824.13 300.06 857.78 299.74 891.00 300.00 C 924.22 300.26 957.77 299.36 991.00 300.00 C 1024.23 300.64 1057.83 298.56 1091.00 300.00 C 1124.17 301.44 1157.99 296.80 1191.00 300.00 Z"/>
</g>
<g fill="#000000" fill-opacity="1.00" stroke="None">
<path d="
M 1191.00 300.00 
C 1157.99 296.80 1124.17 301.44 1091.00 300.00 C 1057.83 298.56 1024.23 300.64 991.00 300.00 C 957.77 299.36 924.22 300.26 891.00 300.00 C 857.78 299.74 824.13 300.06 791.00 300.00 C 757.87 299.94 723.90 299.90 691.00 300.00 C 658.10 300.10 623.37 299.68 591.00 300.00 C 558.63 300.32 522.21 299.24 491.00 300.00 C 459.79 300.76 421.76 297.01 394.00 303.00 C 366.25 309.00 348.78 318.38 330.30 339.30 C 311.83 360.23 302.46 379.97 300.33 409.33 C 298.20 438.69 300.74 477.43 300.00 509.00 C 299.26 540.57 300.32 576.50 300.00 609.00 C 299.68 641.50 300.12 676.11 300.00 709.00 C 299.88 741.89 300.00 776.02 300.00 809.00 C 300.00 841.98 299.87 876.17 300.00 909.00 C 300.13 941.83 299.67 976.66 300.00 1009.00 C 300.33 1041.34 299.24 1077.81 300.00 1109.00 C 300.76 1140.19 297.00 1178.25 303.00 1206.00 C 309.00 1233.75 318.38 1251.23 339.30 1269.70 C 360.23 1288.17 379.97 1297.54 409.33 1299.67 C 438.69 1301.80 477.43 1299.26 509.00 1300.00 C 540.57 1300.74 576.50 1299.68 609.00 1300.00 C 641.50 1300.32 676.11 1299.88 709.00 1300.00 C 741.89 1300.12 776.02 1300.00 809.00 1300.00 C 841.98 1300.00 876.17 1300.13 909.00 1300.00 C 941.83 1299.87 976.66 1300.34 1009.00 1300.00 C 1041.34 1299.66 1077.81 1300.77 1109.00 1300.00 C 1140.19 1299.23 1178.25 1303.00 1206.00 1297.00 C 1233.75 1291.00 1251.22 1281.62 1269.70 1260.70 C 1288.17 1239.77 1297.54 1220.04 1299.67 1190.67 C 1301.80 1161.30 1299.26 1122.57 1300.00 1091.00 C 1300.74 1059.43 1299.67 1023.50 1300.00 991.00 C 1300.33 958.50 1299.87 923.89 1300.00 891.00 C 1300.13 858.11 1299.97 823.98 1300.00 791.00 C 1300.03 758.02 1300.06 723.83 1300.00 691.00 C 1299.94 658.18 1300.18 623.33 1300.00 591.00 C 1299.82 558.67 1300.42 522.17 1300.00 491.00 C 1299.58 459.83 1302.22 421.71 1297.00 394.00 C 1291.78 366.29 1279.93 348.69 1260.70 330.30 C 1241.46 311.92 1216.12 302.43 1191.00 300.00
M 855.00 745.00 
C 883.26 744.55 915.10 745.60 943.00 745.00 C 970.90 744.40 1004.41 746.14 1031.00 745.00 C 1057.59 743.86 1082.04 745.50 1097.25 766.75 C 1112.46 788.00 1112.41 811.96 1097.23 833.23 C 1082.05 854.50 1057.61 856.14 1031.00 855.00 C 1004.39 853.86 970.92 855.60 943.00 855.00 C 915.08 854.40 883.27 855.45 855.00 855.00
C 855.44 883.26 854.41 915.10 855.00 943.00 C 855.59 970.90 853.87 1004.41 855.00 1031.00 C 856.13 1057.59 854.52 1082.03 833.25 1097.25 C 811.98 1112.47 788.09 1112.39 766.77 1097.23 C 745.45 1082.07 743.82 1057.66 745.00 1031.00 C 746.18 1004.34 744.38 970.94 745.00 943.00 C 745.62 915.06 744.54 883.29 745.00 855.00
C 716.74 855.46 684.91 854.39 657.00 855.00 C 629.09 855.61 595.60 853.83 569.00 855.00 C 542.40 856.17 517.97 854.53 502.75 833.25 C 487.53 811.97 487.61 788.09 502.77 766.77 C 517.93 745.45 542.34 743.82 569.00 745.00 C 595.66 746.18 629.06 744.38 657.00 745.00 C 684.94 745.62 716.71 744.54 745.00 745.00
C 744.54 716.72 745.62 684.93 745.00 657.00 C 744.38 629.07 746.18 595.63 745.00 569.00 C 743.82 542.37 745.45 517.95 766.75 502.75 C 788.05 487.55 811.93 487.59 833.23 502.77 C 854.53 517.95 856.17 542.38 855.00 569.00 C 853.83 595.62 855.61 629.08 855.00 657.00 C 854.39 684.92 855.46 716.73 855.00 745.00 Z"/>
</g>
<g fill="#FEFEFE" fill-opacity="1.00" stroke="None">
<path d="
M 855.00 745.00 
C 855.46 716.73 854.39 684.92 855.00 657.00 C 855.61 629.08 853.83 595.62 855.00 569.00 C 856.17 542.38 854.53 517.95 833.23 502.77 C 811.93 487.59 788.05 487.55 766.75 502.75 C 745.45 517.95 743.82 542.37 745.00 569.00 C 746.18 595.63 744.38 629.07 745.00 657.00 C 745.62 684.93 744.54 716.72 745.00 745.00
C 716.71 744.54 684.94 745.62 657.00 745.00 C 629.06 744.38 595.66 746.18 569.00 745.00 C 542.34 743.82 517.93 745.45 502.77 766.77 C 487.61 788.09 487.53 811.97 502.75 833.25 C 517.97 854.53 542.40 856.17 569.00 855.00 C 595.60 853.83 629.09 855.61 657.00 855.00 C 684.91 854.39 716.74 855.46 745.00 855.00
C 744.54 883.29 745.62 915.06 745.00 943.00 C 744.38 970.94 746.18 1004.34 745.00 1031.00 C 743.82 1057.66 745.45 1082.07 766.77 1097.23 C 788.09 1112.39 811.98 1112.47 833.25 1097.25 C 854.52 1082.03 856.13 1057.59 855.00 1031.00 C 853.87 1004.41 855.59 970.90 855.00 943.00 C 854.41 915.10 855.44 883.26 855.00 855.00
C 883.27 855.45 915.08 854.40 943.00 855.00 C 970.92 855.60 1004.39 853.86 1031.00 855.00 C 1057.61 856.14 1082.05 854.50 1097.23 833.23 C 1112.41 811.96 1112.46 788.00 1097.25 766.75 C 1082.04 745.50 1057.59 743.86 1031.00 745.00 C 1004.41 746.14 970.90 744.40 943.00 745.00 C 915.10 745.60 883.26 744.55 855.00 745.00 Z"/>
</g>
</svg>